# xmcd
#
# Track frame offsets: 
#        150
#        23375
#        43942
#        71577
#        91287
#        106907
#        128135
#        145225
#        160960
#        184998
#        206920
#        231232
#        253562
#        269269
#        284981
#        301813
#
# Disc length: 4235 seconds
#
# Revision: 0
# Processed by: cddbd v1.5PL3 Copyright (c) Steve Scherf et al.
# Submitted via: ExactAudioCopy v0.95a5
#
DISCID=ed108910
DTITLE=Various Artist - 四星绝唱
DYEAR=2000
DGENRE=pop
TTITLE0=我的未来不是梦
TTITLE1=大海
TTITLE2=一天到晚游泳的鱼
TTITLE3=还是朋友
TTITLE4=偏偏喜欢你
TTITLE5=一生何求
TTITLE6=今宵多珍重
TTITLE7=念亲恩
TTITLE8=海阔天空
TTITLE9=长城
TTITLE10=灰色轨迹
TTITLE11=光辉岁月
TTITLE12=千言万语
TTITLE13=月亮代表我的心
TTITLE14=在水一方
TTITLE15=再见我的爱人
EXTD=
EXTT0=
EXTT1=
EXTT2=
EXTT3=
EXTT4=
EXTT5=
EXTT6=
EXTT7=
EXTT8=
EXTT9=
EXTT10=
EXTT11=
EXTT12=
EXTT13=
EXTT14=
EXTT15=
PLAYORDER=
